<svg width="280" height="247" viewBox="0 0 280 247" fill="none" xmlns="http://www.w3.org/2000/svg">
<path d="M119.32 141.669C108.852 91.0144 118.768 57.7803 118.768 57.7803C118.768 57.7803 116.116 78.0132 136.979 110.628C136.716 151.061 144.849 172.15 144.849 172.15L146.518 170.945L144.849 172.367C144.849 172.367 132.475 162.488 119.32 141.669Z" fill="#0A5959"/>
<path d="M168.634 134.497C173.636 139.43 178.308 142.841 181.681 144.468C181.66 144.462 181.64 144.448 181.62 144.435C181.62 144.435 185.41 145.766 186.077 144.877C190.695 140.095 191.826 131.177 188.749 114.415C171.138 104.575 168.916 89.2427 168.916 89.2427C168.916 89.2427 165.745 110.536 168.634 134.49V134.497Z" fill="#0A5959"/>
<path d="M118.768 57.7808C118.768 57.7808 104.281 106.321 128.799 175.47C129.466 177.466 128.799 179.679 127.015 181.009L101.157 198.739C98.7063 200.511 95.1382 199.404 94.0274 196.52C87.1134 178.131 68.1689 117.175 87.3356 50.4635C88.231 47.8026 91.1258 46.2549 93.8053 47.3614L118.768 57.7808Z" fill="url(#paint0_linear_0_214)"/>
<path d="M168.251 155.302L144.85 172.15C144.85 172.15 132.368 139.792 138.831 78.3951C139.275 74.8517 143.066 73.0734 146.189 74.8517L168.924 89.2558C168.924 89.2558 164.467 119.177 170.93 147.992C171.597 150.87 170.486 153.755 168.258 155.309L168.251 155.302Z" fill="url(#paint1_linear_0_214)"/>
<path d="M211.491 117.84L189.867 103.878C188.527 102.988 186.521 104.319 186.972 105.873C192.102 128.26 191.429 139.338 186.083 144.883C185.417 145.773 181.627 144.442 181.627 144.442C185.195 146.214 186.083 145.331 186.083 145.331C189.652 142.671 203.022 133.14 211.491 127.377C214.837 124.94 214.837 120.06 211.491 117.847V117.84Z" fill="#4BDFFF"/>
<defs>
<linearGradient id="paint0_linear_0_214" x1="104.026" y1="47" x2="104.026" y2="199.592" gradientUnits="userSpaceOnUse">
<stop stop-color="#0BD895"/>
<stop offset="1" stop-color="#4BDFFF"/>
</linearGradient>
<linearGradient id="paint1_linear_0_214" x1="154.048" y1="74.1538" x2="154.048" y2="172.15" gradientUnits="userSpaceOnUse">
<stop stop-color="#0BD895"/>
<stop offset="1" stop-color="#4BDFFF"/>
</linearGradient>
</defs>
</svg>
